<svg id="fi-rr-calendar_1" data-name="fi-rr-calendar 1" xmlns="http://www.w3.org/2000/svg" width="24" height="24" viewBox="0 0 24 24">
  <path id="Vector" d="M19,2H18V1a1,1,0,1,0-2,0V2H8V1A1,1,0,0,0,6,1V2H5A5.006,5.006,0,0,0,0,7V19a5.006,5.006,0,0,0,5,5H19a5.006,5.006,0,0,0,5-5V7a5.006,5.006,0,0,0-5-5ZM2,7A3,3,0,0,1,5,4H19a3,3,0,0,1,3,3V8H2ZM19,22H5a3,3,0,0,1-3-3V10H22v9a3,3,0,0,1-3,3Z" transform="translate(0 0)" fill="#a2a2c2"/>
  <path id="Vector-2" data-name="Vector" d="M3,1.5A1.5,1.5,0,1,1,1.5,0,1.5,1.5,0,0,1,3,1.5Z" transform="translate(10.5 13.5)" fill="#a2a2c2"/>
  <path id="Vector-3" data-name="Vector" d="M3,1.5A1.5,1.5,0,1,1,1.5,0,1.5,1.5,0,0,1,3,1.5Z" transform="translate(5.5 13.5)" fill="#a2a2c2"/>
  <path id="Vector-4" data-name="Vector" d="M3,1.5A1.5,1.5,0,1,1,1.5,0,1.5,1.5,0,0,1,3,1.5Z" transform="translate(15.5 13.5)" fill="#a2a2c2"/>
</svg>
