<svg xmlns="http://www.w3.org/2000/svg" width="24" height="22" viewBox="0 0 24 22">
  <g id="fi-rr-folder_1" data-name="fi-rr-folder 1" transform="translate(0 -1)">
    <path id="Vector" d="M19,2H12.472a1.019,1.019,0,0,1-.447-.1L8.869.316A3.014,3.014,0,0,0,7.528,0H5A5.006,5.006,0,0,0,0,5V17a5.006,5.006,0,0,0,5,5H19a5.006,5.006,0,0,0,5-5V7a5.006,5.006,0,0,0-5-5ZM5,2H7.528a1.019,1.019,0,0,1,.447.1l3.156,1.579A3.014,3.014,0,0,0,12.472,4H19a3,3,0,0,1,2.779,1.882L2,5.994V5A3,3,0,0,1,5,2ZM19,20H5a3,3,0,0,1-3-3V7.994l20-.113V17a3,3,0,0,1-3,3Z" transform="translate(0 1)" fill="#a2a2c2"/>
  </g>
</svg>
