<svg xmlns="http://www.w3.org/2000/svg" width="33" height="29" viewBox="0 0 33 29">
  <g id="Group_20" data-name="Group 20" transform="translate(-89 -532)">
    <path id="Vector" d="M24,11.271A12.012,12.012,0,1,0,12.018,24.024H19a5,5,0,0,0,5-5Zm-2,7.753a3,3,0,0,1-3,3H12.018a10.041,10.041,0,0,1-7.476-3.343,9.917,9.917,0,0,1-2.476-7.814,10.043,10.043,0,0,1,8.656-8.761,10.564,10.564,0,0,1,1.3-.082,9.921,9.921,0,0,1,6.379,2.3A10.041,10.041,0,0,1,22,11.366Z" transform="translate(89 536.976)" fill="#a2a2c2"/>
    <path id="Vector-2" data-name="Vector" d="M1,2H5A1,1,0,0,0,5,0H1A1,1,0,0,0,1,2Z" transform="translate(96.001 544)" fill="#a2a2c2"/>
    <path id="Vector-3" data-name="Vector" d="M9,0H1A1,1,0,0,0,1,2H9A1,1,0,1,0,9,0Z" transform="translate(96.001 548)" fill="#a2a2c2"/>
    <path id="Vector-4" data-name="Vector" d="M9,0H1A1,1,0,1,0,1,2H9A1,1,0,1,0,9,0Z" transform="translate(96.001 552)" fill="#a2a2c2"/>
    <g id="Ellipse_8" data-name="Ellipse 8" transform="translate(104 533)" fill="#ff808b" stroke="#fefefe" stroke-width="1">
      <circle cx="8.5" cy="8.5" r="8.5" stroke="none"/>
      <circle cx="8.5" cy="8.5" r="9" fill="none"/>
    </g>
  </g>
</svg>
